<?xml version="1.0" standalone="no"?>
<!DOCTYPE svg PUBLIC "-//W3C//DTD SVG 20010904//EN"
 "http://www.w3.org/TR/2001/REC-SVG-20010904/DTD/svg10.dtd">
<svg version="1.0" xmlns="http://www.w3.org/2000/svg"
 width="300.000000pt" height="280.000000pt" viewBox="0 0 300.000000 280.000000"
 preserveAspectRatio="xMidYMid meet">
<metadata>
Created by potrace 1.10, written by Peter Selinger 2001-2011
</metadata>
<g transform="translate(0.000000,280.000000) scale(0.100000,-0.100000)"
fill="#000000" stroke="none">
<path d="M370 2651 c-46 -10 -110 -43 -137 -73 -12 -12 -31 -43 -42 -68 -20
-44 -21 -59 -20 -1100 0 -856 2 -1062 13 -1093 22 -59 64 -107 120 -133 l51
-24 458 0 c383 0 463 2 486 15 48 24 55 77 17 122 l-24 28 -450 5 c-425 5
-451 6 -471 24 -16 14 -21 31 -21 65 l0 47 1150 2 1150 3 0 -46 c0 -37 -5 -51
-26 -70 l-27 -25 -431 0 c-391 0 -434 -2 -465 -18 -62 -31 -62 -108 -1 -139
33 -17 905 -19 963 -2 47 13 111 69 140 123 l22 41 3 1053 c1 690 -1 1067 -8
1091 -17 64 -65 120 -128 149 l-57 27 -1115 1 c-613 1 -1131 -1 -1150 -5z
m2297 -43 c15 -6 30 -12 33 -12 13 -3 59 -55 74 -83 15 -29 16 -130 19 -1101
l2 -1068 -24 -45 c-26 -50 -68 -84 -122 -99 -45 -13 -899 -13 -933 0 -18 7
-26 17 -26 34 0 58 -25 55 433 56 246 0 437 5 458 10 54 15 99 70 99 122 0 25
-7 49 -17 60 -15 17 -65 18 -1163 18 -1129 0 -1147 0 -1165 -20 -14 -15 -17
-31 -13 -69 6 -56 22 -77 81 -103 35 -16 79 -18 457 -18 367 0 421 -2 434 -16
18 -17 20 -42 6 -64 -8 -13 -72 -15 -452 -18 -303 -2 -459 0 -495 8 -62 13
-105 49 -132 110 -20 44 -21 64 -21 1106 l0 1060 29 45 c16 25 46 57 67 70
l39 24 1125 5 c619 3 1137 4 1152 2 15 -1 40 -7 55 -14z"/>
<path d="M409 2510 c-14 -4 -39 -20 -55 -36 l-29 -29 -9 -240 c-5 -132 -5
-347 -1 -477 8 -278 -6 -253 153 -262 78 -5 181 -23 197 -36 6 -4 33 -13 60
-20 55 -14 88 -28 252 -106 191 -93 320 -124 493 -119 122 2 224 18 277 41 17
8 38 14 46 14 9 0 28 5 44 12 15 6 31 11 36 10 4 -1 7 2 7 8 0 5 8 10 18 10 9
0 31 7 47 16 17 9 55 25 85 36 30 11 60 24 65 28 6 4 25 11 43 15 17 3 32 10
32 14 0 3 21 12 48 19 26 6 54 14 62 17 50 15 168 34 252 39 54 4 109 11 123
16 l26 10 -3 476 -3 476 -38 33 c-21 18 -50 35 -65 38 -43 9 -2134 6 -2163 -3z
m2216 -56 l25 -27 0 -462 0 -462 -117 -5 c-174 -8 -284 -39 -576 -163 -254
-107 -409 -137 -605 -115 -129 14 -245 51 -398 128 -66 33 -152 71 -192 86
-102 36 -257 66 -347 66 -66 0 -76 2 -71 16 3 9 6 218 6 465 l0 450 25 24 24
25 1101 0 1101 0 24 -26z"/>
<path d="M1403 2241 c-111 -28 -216 -116 -267 -221 -29 -60 -31 -73 -31 -170
0 -99 2 -110 33 -172 42 -86 129 -168 209 -198 152 -57 329 -24 433 80 90 90
124 180 118 309 -6 116 -39 190 -119 266 -81 77 -151 107 -259 111 -47 2 -99
-1 -117 -5z m222 -44 c59 -22 95 -41 95 -49 0 -5 6 -8 13 -8 27 0 109 -121
126 -188 26 -97 13 -223 -30 -283 -10 -15 -19 -30 -19 -33 0 -3 -19 -24 -42
-47 -88 -84 -204 -119 -330 -99 -125 19 -217 86 -274 198 -26 52 -29 66 -29
162 0 93 3 111 26 161 27 56 101 143 113 132 3 -4 6 -2 6 4 0 13 87 51 143 63
56 12 152 5 202 -13z"/>
<path d="M337 1352 c-12 -13 -17 -37 -17 -85 0 -86 14 -97 120 -97 112 0 293
-42 373 -86 15 -8 27 -12 27 -8 0 4 8 0 18 -9 10 -9 33 -22 50 -28 18 -6 29
-15 26 -20 -3 -5 0 -9 6 -9 6 0 32 -12 58 -27 26 -16 50 -28 53 -28 4 0 21
-11 39 -25 18 -14 35 -25 39 -25 3 0 20 -9 36 -21 17 -11 37 -24 45 -28 76
-35 121 -64 104 -68 -33 -6 -148 9 -152 21 -2 6 -8 11 -13 11 -5 0 -64 31
-132 68 -67 38 -152 83 -188 100 -95 45 -246 82 -366 89 -132 8 -143 0 -143
-94 0 -96 3 -99 107 -101 139 -4 262 -25 343 -59 8 -3 17 -7 20 -8 80 -28 44
-33 -195 -27 -281 6 -275 8 -275 -95 0 -35 5 -73 10 -84 10 -19 34 -19 1164
-19 1323 0 1186 -12 1186 102 0 103 24 97 -390 98 -195 0 -364 2 -375 4 -94
20 -232 48 -242 50 -7 1 -16 5 -19 9 -4 4 -16 7 -26 7 -25 0 -181 61 -190 75
-4 5 -8 7 -8 3 0 -3 -19 4 -42 17 -24 14 -70 38 -103 55 -33 17 -62 35 -65 39
-3 5 -18 16 -35 25 -16 9 -48 28 -70 41 -22 13 -53 32 -70 40 -16 9 -48 27
-70 41 -89 53 -268 129 -328 138 -6 1 -17 4 -22 8 -16 10 -159 28 -219 28 -39
0 -57 -5 -69 -18z m178 -23 c184 -23 324 -82 646 -276 231 -138 359 -197 510
-237 197 -51 258 -56 631 -56 l348 0 0 -70 0 -70 -1149 0 -1149 0 -4 66 c-2
42 1 68 8 71 6 2 142 3 302 1 161 -2 292 -1 292 2 0 8 -129 75 -190 98 -95 37
-180 52 -300 52 l-115 0 2 66 1 67 107 -2 c189 -4 316 -47 597 -204 l135 -75
140 -4 c78 -1 140 -2 139 0 -2 1 -44 22 -95 47 -50 25 -180 98 -289 163 -108
65 -228 132 -267 150 -106 48 -246 82 -365 89 l-105 6 2 61 c1 33 2 62 3 64 1
5 81 1 165 -9z"/>
<path d="M2425 1359 c-61 -9 -145 -31 -193 -51 -15 -6 -29 -12 -32 -13 -30 -7
-89 -31 -136 -55 -32 -17 -61 -30 -66 -30 -5 0 -25 -7 -46 -16 -80 -36 -161
-61 -247 -78 -50 -10 -97 -20 -105 -23 -8 -3 -29 -5 -45 -4 -17 1 -43 -3 -59
-8 -39 -15 -32 -51 14 -73 70 -33 147 -58 179 -58 14 0 20 -4 15 -12 -4 -6 -3
-8 3 -5 5 3 27 0 49 -8 21 -7 64 -16 94 -20 30 -4 69 -9 85 -12 17 -3 182 -7
369 -10 398 -5 376 -10 376 97 0 104 11 100 -296 101 -142 0 -252 3 -244 6 8
3 29 12 45 19 17 8 42 16 55 19 14 3 34 9 45 14 32 15 173 31 265 31 118 0
130 9 130 99 0 92 -11 101 -116 100 -43 -1 -106 -5 -139 -10z m225 -82 l0 -64
-122 -6 c-81 -4 -156 -15 -220 -31 -97 -25 -313 -110 -324 -127 -3 -6 121 -9
330 -7 l336 3 0 -67 0 -68 -280 0 c-375 0 -562 22 -754 89 -154 55 -154 54
-51 62 125 9 263 48 445 125 278 118 395 150 568 153 l72 1 0 -63z"/>
<path d="M1446 288 c-53 -75 41 -161 102 -95 45 48 14 117 -52 117 -25 0 -39
-7 -50 -22z m72 -10 c20 -20 15 -66 -8 -73 -43 -14 -65 33 -32 66 21 22 25 22
40 7z"/>
</g>
</svg>
