<svg xml:space="preserve" style="max-height: 500px" viewBox="88 1082.4 1056 1051.6" y="0px" x="0px" xmlns:xlink="http://www.w3.org/1999/xlink" xmlns="http://www.w3.org/2000/svg" version="1.1" width="1056" height="1051.6">
<g id="background">
	<rect height="2200" width="2200" style="fill:#FFFFFF;"/>
</g>
<g id="Objects">
	<g>
		<path d="M206.05,703.182c-0.02,6.75,5.599,11.509,12.309,13.544c0.007,0.003,0.015,0.005,0.022,0.007&#10;&#9;&#9;&#9;c0.046,0.014,0.091,0.029,0.137,0.043c1.987,0.691,4.008,1.073,5.893,1.073c25.782,0,51.563,0,77.345,0&#10;&#9;&#9;&#9;c61.61,0,123.219,0,184.829,0c74.497,0,148.994,0,223.492,0c64.638,0,129.277,0,193.915,0c31.279,0,62.576,0.307,93.854,0&#10;&#9;&#9;&#9;c0.443-0.004,0.885,0,1.328,0c7.831,0,16.202-3.18,16.174-12.331c-0.25-82.833-26.545-164.217-74.668-231.632&#10;&#9;&#9;&#9;c-47.71-66.837-115.558-117.47-192.455-145.818c-79.98-29.485-168.751-32.112-250.715-9.371&#10;&#9;&#9;&#9;c-77.992,21.638-148.337,67.911-200.058,130.04c-52.324,62.852-83.443,141.085-90.096,222.44&#10;&#9;&#9;&#9;c-0.821,10.04-1.213,20.101-1.283,30.173C206.02,701.934,206.003,702.539,206.05,703.182z M309.291,489.269&#10;&#9;&#9;&#9;c43.477-61.651,105.09-109.479,175.83-135.795c72.317-26.902,152.733-30.242,226.857-9.457&#10;&#9;&#9;&#9;c71.283,19.988,136.163,62.444,183.523,119.999c48.589,59.048,78.081,132.1,84.102,208.334c0.487,6.16,0.797,12.329,0.987,18.502&#10;&#9;&#9;&#9;c-20.316,0-40.632,0-60.948,0c-61.609,0-123.219,0-184.829,0c-74.497,0-148.994,0-223.492,0c-64.638,0-129.277,0-193.915,0&#10;&#9;&#9;&#9;c-25.49,0-50.991-0.186-76.485-0.096C243.965,618.688,267.631,548.343,309.291,489.269z"/>
		<path d="M1015.348,763.871c-0.604-8.321-10.627-14.667-18.361-14.667c-25.782,0-51.563,0-77.345,0c-61.609,0-123.219,0-184.829,0&#10;&#9;&#9;&#9;c-74.497,0-148.994,0-223.492,0c-64.638,0-129.277,0-193.915,0c-31.279,0-62.576-0.307-93.854,0c-0.443,0.004-0.885,0-1.328,0&#10;&#9;&#9;&#9;c-7.362,0-16.83,3.297-16.174,12.33c0.604,8.322,10.627,14.667,18.361,14.667c25.782,0,51.563,0,77.345,0&#10;&#9;&#9;&#9;c61.61,0,123.219,0,184.829,0c74.497,0,148.994,0,223.492,0c64.638,0,129.277,0,193.915,0c31.279,0,62.576,0.307,93.854,0&#10;&#9;&#9;&#9;c0.443-0.004,0.885,0,1.328,0C1006.535,776.202,1016.004,772.905,1015.348,763.871z"/>
		<path d="M952.749,807.558c-22.821,0-45.643,0-68.464,0c-54.509,0-109.019,0-163.528,0c-66.206,0-132.412,0-198.618,0&#10;&#9;&#9;&#9;c-57.005,0-114.011,0-171.016,0c-27.828,0-55.672-0.279-83.5,0c-0.387,0.004-0.774,0-1.161,0c-7.362,0-16.831,3.297-16.174,12.33&#10;&#9;&#9;&#9;c0.604,8.322,10.627,14.667,18.361,14.667c22.821,0,45.643,0,68.464,0c54.509,0,109.019,0,163.528,0c66.206,0,132.412,0,198.618,0&#10;&#9;&#9;&#9;c57.005,0,114.01,0,171.016,0c27.828,0,55.672,0.279,83.5,0c0.387-0.004,0.774,0,1.161,0c7.362,0,16.831-3.297,16.174-12.331&#10;&#9;&#9;&#9;C970.505,813.903,960.483,807.558,952.749,807.558z"/>
		<path d="M876.747,865.911c-60.093,0-120.185,0-180.278,0c-95.873,0-191.746,0-287.619,0c-22.129,0-44.258,0-66.386,0&#10;&#9;&#9;&#9;c-7.362,0-16.831,3.297-16.174,12.331c0.604,8.322,10.627,14.667,18.361,14.667c60.093,0,120.185,0,180.278,0&#10;&#9;&#9;&#9;c95.873,0,191.746,0,287.619,0c22.129,0,44.258,0,66.386,0c7.362,0,16.831-3.297,16.174-12.331&#10;&#9;&#9;&#9;C894.503,872.256,884.481,865.911,876.747,865.911z"/>
		<path d="M785.795,924.264c-39.834,0-79.667,0-119.501,0c-63.126,0-126.252,0-189.377,0c-14.5,0-29,0-43.5,0&#10;&#9;&#9;&#9;c-7.362,0-16.83,3.297-16.174,12.331c0.604,8.322,10.627,14.667,18.361,14.667c39.834,0,79.667,0,119.501,0&#10;&#9;&#9;&#9;c63.126,0,126.252,0,189.378,0c14.5,0,29,0,43.5,0c7.362,0,16.831-3.297,16.174-12.331&#10;&#9;&#9;&#9;C803.551,930.61,793.529,924.264,785.795,924.264z"/>
		<path d="M689.235,982.617c-46.517,0-93.034,0-139.55,0c-6.57,0-13.14,0-19.71,0c-7.362,0-16.831,3.297-16.174,12.331&#10;&#9;&#9;&#9;c0.604,8.322,10.626,14.667,18.361,14.667c46.517,0,93.033,0,139.55,0c6.57,0,13.14,0,19.71,0c7.362,0,16.831-3.297,16.174-12.331&#10;&#9;&#9;&#9;C706.992,988.963,696.97,982.617,689.235,982.617z"/>
	</g>
	<g>
		<path d="M1196.954,716.721c0.017,0,0.017,0.017,0.034,0.017c0.034,0,0.085,0.017,0.136,0.034c1.988,0.696,4.009,1.07,5.895,1.07&#10;&#9;&#9;&#9;h679.567c31.294,0,62.588,0.306,93.865,0h1.325c7.832,0,16.208-3.177,16.174-12.317c-0.255-82.839-26.537-164.217-74.667-231.647&#10;&#9;&#9;&#9;c-47.706-66.835-115.56-117.463-192.453-145.818c-79.985-29.476-168.753-32.11-250.709-9.361&#10;&#9;&#9;&#9;c-77.997,21.644-148.349,67.906-200.064,130.035c-52.327,62.86-83.451,141.095-90.094,222.439&#10;&#9;&#9;&#9;c-0.833,10.041-1.223,20.098-1.291,30.173c-0.051,0.595-0.068,1.189-0.017,1.835&#10;&#9;&#9;&#9;C1184.637,709.925,1190.243,714.682,1196.954,716.721z"/>
		<path d="M1993.95,763.871c-0.605-8.321-10.627-14.667-18.361-14.667c-25.781,0-51.563,0-77.345,0c-61.609,0-123.219,0-184.829,0&#10;&#9;&#9;&#9;c-74.497,0-148.994,0-223.492,0c-64.638,0-129.277,0-193.915,0c-31.279,0-62.576-0.307-93.854,0c-0.443,0.004-0.885,0-1.328,0&#10;&#9;&#9;&#9;c-7.362,0-16.83,3.297-16.174,12.33c0.604,8.322,10.626,14.667,18.361,14.667c25.781,0,51.563,0,77.345,0&#10;&#9;&#9;&#9;c61.61,0,123.219,0,184.829,0c74.497,0,148.995,0,223.492,0c64.638,0,129.277,0,193.915,0c31.279,0,62.576,0.307,93.854,0&#10;&#9;&#9;&#9;c0.443-0.004,0.886,0,1.328,0C1985.138,776.202,1994.607,772.905,1993.95,763.871z"/>
		<path d="M1931.351,807.558c-22.821,0-45.643,0-68.464,0c-54.509,0-109.019,0-163.528,0c-66.206,0-132.412,0-198.618,0&#10;&#9;&#9;&#9;c-57.005,0-114.01,0-171.016,0c-27.828,0-55.672-0.279-83.5,0c-0.387,0.004-0.774,0-1.161,0c-7.362,0-16.83,3.297-16.174,12.33&#10;&#9;&#9;&#9;c0.604,8.322,10.626,14.667,18.361,14.667c22.821,0,45.643,0,68.464,0c54.509,0,109.019,0,163.528,0c66.206,0,132.412,0,198.618,0&#10;&#9;&#9;&#9;c57.005,0,114.01,0,171.016,0c27.828,0,55.672,0.279,83.499,0c0.387-0.004,0.774,0,1.161,0c7.362,0,16.831-3.297,16.174-12.331&#10;&#9;&#9;&#9;C1949.107,813.903,1939.085,807.558,1931.351,807.558z"/>
		<path d="M1855.35,865.911c-60.093,0-120.185,0-180.278,0c-95.873,0-191.746,0-287.619,0c-22.129,0-44.258,0-66.386,0&#10;&#9;&#9;&#9;c-7.362,0-16.831,3.297-16.174,12.331c0.604,8.322,10.627,14.667,18.361,14.667c60.093,0,120.185,0,180.278,0&#10;&#9;&#9;&#9;c95.873,0,191.746,0,287.619,0c22.129,0,44.258,0,66.386,0c7.362,0,16.83-3.297,16.174-12.331&#10;&#9;&#9;&#9;C1873.106,872.256,1863.084,865.911,1855.35,865.911z"/>
		<path d="M1764.397,924.264c-39.834,0-79.667,0-119.501,0c-63.126,0-126.252,0-189.377,0c-14.5,0-29,0-43.5,0&#10;&#9;&#9;&#9;c-7.362,0-16.83,3.297-16.174,12.331c0.604,8.322,10.626,14.667,18.361,14.667c39.834,0,79.667,0,119.501,0&#10;&#9;&#9;&#9;c63.126,0,126.252,0,189.378,0c14.5,0,29,0,43.5,0c7.362,0,16.831-3.297,16.174-12.331&#10;&#9;&#9;&#9;C1782.153,930.61,1772.131,924.264,1764.397,924.264z"/>
		<path d="M1667.838,982.617c-46.517,0-93.033,0-139.55,0c-6.57,0-13.14,0-19.71,0c-7.362,0-16.831,3.297-16.174,12.331&#10;&#9;&#9;&#9;c0.604,8.322,10.626,14.667,18.361,14.667c46.517,0,93.033,0,139.55,0c6.57,0,13.14,0,19.71,0c7.362,0,16.831-3.297,16.174-12.331&#10;&#9;&#9;&#9;C1685.594,988.963,1675.572,982.617,1667.838,982.617z"/>
	</g>
	<g>
		<g>
			<path d="M223.317,1591.198c0-213.945,173.437-387.381,387.381-387.381s387.381,173.437,387.381,387.381&#10;&#9;&#9;&#9;&#9;H223.317z" style="fill:#FCDB54;"/>
		</g>
		<g>
			<path d="M206.05,1590.03c-0.02,6.75,5.599,11.509,12.309,13.543c0.007,0.003,0.015,0.005,0.022,0.007&#10;&#9;&#9;&#9;&#9;c0.046,0.014,0.091,0.029,0.137,0.043c1.988,0.691,4.008,1.073,5.893,1.073c25.782,0,51.563,0,77.345,0&#10;&#9;&#9;&#9;&#9;c61.61,0,123.219,0,184.829,0c74.497,0,148.994,0,223.492,0c64.638,0,129.277,0,193.915,0c31.279,0,62.576,0.307,93.854,0&#10;&#9;&#9;&#9;&#9;c0.443-0.004,0.885,0,1.328,0c7.831,0,16.202-3.18,16.174-12.33c-0.25-82.833-26.545-164.217-74.668-231.632&#10;&#9;&#9;&#9;&#9;c-47.71-66.837-115.558-117.469-192.455-145.818c-79.98-29.485-168.751-32.112-250.715-9.371&#10;&#9;&#9;&#9;&#9;c-77.992,21.638-148.337,67.911-200.058,130.04c-52.324,62.852-83.443,141.085-90.096,222.44&#10;&#9;&#9;&#9;&#9;c-0.821,10.04-1.213,20.101-1.283,30.173C206.02,1588.783,206.003,1589.388,206.05,1590.03z M309.291,1376.117&#10;&#9;&#9;&#9;&#9;c43.477-61.651,105.09-109.479,175.83-135.795c72.317-26.902,152.733-30.242,226.857-9.457&#10;&#9;&#9;&#9;&#9;c71.283,19.988,136.163,62.444,183.523,119.999c48.589,59.048,78.081,132.099,84.102,208.333&#10;&#9;&#9;&#9;&#9;c0.487,6.16,0.797,12.329,0.987,18.502c-20.316,0-40.632,0-60.948,0c-61.609,0-123.219,0-184.829,0&#10;&#9;&#9;&#9;&#9;c-74.497,0-148.994,0-223.492,0c-64.638,0-129.277,0-193.915,0c-25.49,0-50.991-0.186-76.485-0.096&#10;&#9;&#9;&#9;&#9;C243.965,1505.537,267.631,1435.192,309.291,1376.117z"/>
			<path d="M1015.348,1650.72c-0.604-8.321-10.627-14.667-18.361-14.667c-25.782,0-51.563,0-77.345,0c-61.609,0-123.219,0-184.829,0&#10;&#9;&#9;&#9;&#9;c-74.497,0-148.994,0-223.492,0c-64.638,0-129.277,0-193.915,0c-31.279,0-62.576-0.307-93.854,0c-0.443,0.004-0.885,0-1.328,0&#10;&#9;&#9;&#9;&#9;c-7.362,0-16.83,3.297-16.174,12.33c0.604,8.321,10.627,14.667,18.361,14.667c25.782,0,51.563,0,77.345,0&#10;&#9;&#9;&#9;&#9;c61.61,0,123.219,0,184.829,0c74.497,0,148.994,0,223.492,0c64.638,0,129.277,0,193.915,0c31.279,0,62.576,0.307,93.854,0&#10;&#9;&#9;&#9;&#9;c0.443-0.004,0.885,0,1.328,0C1006.535,1663.05,1016.004,1659.754,1015.348,1650.72z"/>
			<path d="M952.749,1694.406c-22.821,0-45.643,0-68.464,0c-54.509,0-109.019,0-163.528,0c-66.206,0-132.412,0-198.618,0&#10;&#9;&#9;&#9;&#9;c-57.005,0-114.011,0-171.016,0c-27.828,0-55.672-0.279-83.5,0c-0.387,0.004-0.774,0-1.161,0c-7.362,0-16.831,3.297-16.174,12.33&#10;&#9;&#9;&#9;&#9;c0.604,8.321,10.627,14.667,18.361,14.667c22.821,0,45.643,0,68.464,0c54.509,0,109.019,0,163.528,0&#10;&#9;&#9;&#9;&#9;c66.206,0,132.412,0,198.618,0c57.005,0,114.01,0,171.016,0c27.828,0,55.672,0.28,83.5,0c0.387-0.004,0.774,0,1.161,0&#10;&#9;&#9;&#9;&#9;c7.362,0,16.831-3.297,16.174-12.33C970.505,1700.752,960.483,1694.406,952.749,1694.406z"/>
			<path d="M876.747,1752.76c-60.093,0-120.185,0-180.278,0c-95.873,0-191.746,0-287.619,0c-22.129,0-44.258,0-66.386,0&#10;&#9;&#9;&#9;&#9;c-7.362,0-16.831,3.297-16.174,12.33c0.604,8.321,10.627,14.667,18.361,14.667c60.093,0,120.185,0,180.278,0&#10;&#9;&#9;&#9;&#9;c95.873,0,191.746,0,287.619,0c22.129,0,44.258,0,66.386,0c7.362,0,16.831-3.297,16.174-12.33&#10;&#9;&#9;&#9;&#9;C894.503,1759.105,884.481,1752.76,876.747,1752.76z"/>
			<path d="M785.795,1811.113c-39.834,0-79.667,0-119.501,0c-63.126,0-126.252,0-189.377,0c-14.5,0-29,0-43.5,0&#10;&#9;&#9;&#9;&#9;c-7.362,0-16.83,3.297-16.174,12.33c0.604,8.321,10.627,14.667,18.361,14.667c39.834,0,79.667,0,119.501,0&#10;&#9;&#9;&#9;&#9;c63.126,0,126.252,0,189.378,0c14.5,0,29,0,43.5,0c7.362,0,16.831-3.297,16.174-12.33&#10;&#9;&#9;&#9;&#9;C803.551,1817.458,793.529,1811.113,785.795,1811.113z"/>
			<path d="M689.235,1869.466c-46.517,0-93.034,0-139.55,0c-6.57,0-13.14,0-19.71,0c-7.362,0-16.831,3.297-16.174,12.33&#10;&#9;&#9;&#9;&#9;c0.604,8.321,10.626,14.667,18.361,14.667c46.517,0,93.033,0,139.55,0c6.57,0,13.14,0,19.71,0c7.362,0,16.831-3.297,16.174-12.33&#10;&#9;&#9;&#9;&#9;C706.992,1875.812,696.97,1869.466,689.235,1869.466z"/>
		</g>
	</g>
	<g>
		<path d="M1589.301,1203.817c-213.945,0-387.381,173.437-387.381,387.381h774.763&#10;&#9;&#9;&#9;C1976.683,1377.254,1803.246,1203.817,1589.301,1203.817z" style="fill:#FCDB54;"/>
		<path d="M1951.507,1636.48c-24.145,0-48.291,0-72.436,0c-57.693,0-115.386,0-173.079,0&#10;&#9;&#9;&#9;c-70.066,0-140.132,0-210.198,0c-60.358,0-120.717,0-181.075,0c-29.491,0-58.999-0.296-88.489,0c-0.417,0.004-0.834,0-1.251,0&#10;&#9;&#9;&#9;c-7.129,0-16.298,3.192-15.663,11.941c0.585,8.058,10.29,14.203,17.78,14.203c24.145,0,48.291,0,72.436,0&#10;&#9;&#9;&#9;c57.693,0,115.386,0,173.079,0c70.066,0,140.132,0,210.198,0c60.359,0,120.717,0,181.076,0c29.491,0,58.999,0.296,88.489,0&#10;&#9;&#9;&#9;c0.417-0.004,0.834,0,1.251,0c7.129,0,16.298-3.192,15.663-11.941C1968.702,1642.625,1958.997,1636.48,1951.507,1636.48z" style="fill:#FCDB54;"/>
		<path d="M1910.023,1694.833c-21.306,0-42.612,0-63.918,0c-51.178,0-102.355,0-153.533,0&#10;&#9;&#9;&#9;c-61.938,0-123.877,0-185.815,0c-53.588,0-107.176,0-160.764,0c-26.121,0-52.26-0.284-78.381,0c-0.383,0.004-0.766,0-1.15,0&#10;&#9;&#9;&#9;c-7.129,0-16.298,3.192-15.663,11.941c0.585,8.058,10.29,14.203,17.78,14.203c21.306,0,42.612,0,63.918,0&#10;&#9;&#9;&#9;c51.178,0,102.355,0,153.533,0c61.938,0,123.877,0,185.815,0c53.588,0,107.176,0,160.764,0c26.121,0,52.26,0.284,78.381,0&#10;&#9;&#9;&#9;c0.383-0.004,0.767,0,1.15,0c7.129,0,16.298-3.192,15.663-11.941C1927.218,1700.978,1917.513,1694.833,1910.023,1694.833z" style="fill:#FCDB54;"/>
		<path d="M1838.753,1753.187c-56.516,0-113.031,0-169.547,0c-89.977,0-179.953,0-269.93,0&#10;&#9;&#9;&#9;c-20.515,0-41.029,0-61.544,0c-7.129,0-16.298,3.192-15.663,11.941c0.585,8.058,10.29,14.203,17.78,14.203&#10;&#9;&#9;&#9;c56.516,0,113.031,0,169.547,0c89.977,0,179.953,0,269.93,0c20.515,0,41.029,0,61.544,0c7.129,0,16.298-3.192,15.663-11.941&#10;&#9;&#9;&#9;C1855.948,1759.331,1846.243,1753.187,1838.753,1753.187z" style="fill:#FCDB54;"/>
		<path d="M1753.463,1811.54c-37.257,0-74.514,0-111.771,0c-59.335,0-118.671,0-178.006,0&#10;&#9;&#9;&#9;c-13.554,0-27.109,0-40.664,0c-7.129,0-16.298,3.192-15.663,11.941c0.585,8.058,10.29,14.203,17.78,14.203&#10;&#9;&#9;&#9;c37.257,0,74.514,0,111.771,0c59.335,0,118.671,0,178.006,0c13.555,0,27.109,0,40.664,0c7.129,0,16.298-3.192,15.663-11.941&#10;&#9;&#9;&#9;C1770.658,1817.685,1760.953,1811.54,1753.463,1811.54z" style="fill:#FCDB54;"/>
		<path d="M1662.915,1869.893c-43.433,0-86.865,0-130.298,0c-6.349,0-12.698,0-19.047,0&#10;&#9;&#9;&#9;c-7.129,0-16.298,3.192-15.663,11.941c0.585,8.058,10.29,14.203,17.78,14.203c43.433,0,86.865,0,130.298,0&#10;&#9;&#9;&#9;c6.349,0,12.698,0,19.047,0c7.129,0,16.298-3.192,15.663-11.941C1680.11,1876.038,1670.405,1869.893,1662.915,1869.893z" style="fill:#FCDB54;"/>
	</g>
</g>
</svg>