<?xml version="1.0" encoding="UTF-8" standalone="no"?>
<!-- Generator: Adobe Illustrator 27.5.0, SVG Export Plug-In . SVG Version: 6.00 Build 0)  -->

<svg
   version="1.1"
   x="0px"
   y="0px"
   viewBox="0 0 2200 2200"
   style="enable-background:new 0 0 2200 2200;"
   xml:space="preserve"
   id="svg25"
   sodipodi:docname="sunset-doodle.svg"
   inkscape:version="1.4 (e7c3feb1, 2024-10-09)"
   xmlns:inkscape="http://www.inkscape.org/namespaces/inkscape"
   xmlns:sodipodi="http://sodipodi.sourceforge.net/DTD/sodipodi-0.dtd"
   xmlns="http://www.w3.org/2000/svg"
   xmlns:svg="http://www.w3.org/2000/svg"><defs
   id="defs25" /><sodipodi:namedview
   id="namedview25"
   pagecolor="#ffffff"
   bordercolor="#999999"
   borderopacity="1"
   inkscape:showpageshadow="0"
   inkscape:pageopacity="0"
   inkscape:pagecheckerboard="0"
   inkscape:deskcolor="#d1d1d1"
   inkscape:zoom="0.092615511"
   inkscape:cx="188.95323"
   inkscape:cy="1182.3074"
   inkscape:window-width="1264"
   inkscape:window-height="472"
   inkscape:window-x="0"
   inkscape:window-y="23"
   inkscape:window-maximized="0"
   inkscape:current-layer="Objects" />

<g
   id="Objects"
   transform="matrix(2.2115957,0,0,2.2115957,-254.0405,-2323.4956)">
	
	
	<g
   id="g20"
   inkscape:label="sunset"
   style="display:inline">
		<g
   id="g13"
   style="display:inline"
   inkscape:label="sole">
			<path
   d="m 223.317,1591.198 c 0,-213.945 173.437,-387.381 387.381,-387.381 213.944,0 387.381,173.437 387.381,387.381 z"
   id="sole-giallo"
   inkscape:label="sole-giallo" />
		</g>
		<g
   id="contorni"
   inkscape:label="contorni"
   style="display:inline">
			
			<path
   d="m 206.05,1590.03 c -0.02,6.75 5.599,11.509 12.309,13.543 0.007,0 0.015,0 0.022,0.01 0.046,0.014 0.091,0.029 0.137,0.043 1.988,0.691 4.008,1.073 5.893,1.073 25.782,0 51.563,0 77.345,0 61.61,0 123.219,0 184.829,0 74.497,0 148.994,0 223.492,0 64.638,0 129.277,0 193.915,0 31.279,0 62.576,0.307 93.854,0 0.443,0 0.885,0 1.328,0 7.831,0 16.202,-3.18 16.174,-12.33 -0.25,-82.833 -26.545,-164.217 -74.668,-231.632 -47.71,-66.837 -115.558,-117.469 -192.455,-145.818 -79.98,-29.485 -168.751,-32.112 -250.715,-9.371 -77.992,21.638 -148.337,67.911 -200.058,130.04 -52.324,62.852 -83.443,141.085 -90.096,222.44 -0.821,10.04 -1.213,20.101 -1.283,30.173 -0.053,0.585 -0.07,1.19 -0.023,1.832 z m 103.241,-213.913 c 43.477,-61.651 105.09,-109.479 175.83,-135.795 72.317,-26.902 152.733,-30.242 226.857,-9.457 71.283,19.988 136.163,62.444 183.523,119.999 48.589,59.048 78.081,132.099 84.102,208.333 0.487,6.16 0.797,12.329 0.987,18.502 -20.316,0 -40.632,0 -60.948,0 -61.609,0 -123.219,0 -184.829,0 -74.497,0 -148.994,0 -223.492,0 -64.638,0 -129.277,0 -193.915,0 -25.49,0 -50.991,-0.186 -76.485,-0.096 3.044,-72.066 26.71,-142.411 68.37,-201.486 z"
   id="sole-contorno"
   style="display:inline"
   inkscape:label="sole-contorno" /><path
   d="m 1015.348,1650.72 c -0.604,-8.321 -10.627,-14.667 -18.361,-14.667 -25.782,0 -51.563,0 -77.345,0 -61.609,0 -123.219,0 -184.829,0 -74.497,0 -148.994,0 -223.492,0 -64.638,0 -129.277,0 -193.915,0 -31.279,0 -62.576,-0.307 -93.854,0 -0.443,0 -0.885,0 -1.328,0 -7.362,0 -16.83,3.297 -16.174,12.33 0.604,8.321 10.627,14.667 18.361,14.667 25.782,0 51.563,0 77.345,0 61.61,0 123.219,0 184.829,0 74.497,0 148.994,0 223.492,0 64.638,0 129.277,0 193.915,0 31.279,0 62.576,0.307 93.854,0 0.443,0 0.885,0 1.328,0 7.361,0 16.83,-3.296 16.174,-12.33 z"
   id="path15"
   inkscape:label="mare-01" />
			<path
   d="m 952.749,1694.406 c -22.821,0 -45.643,0 -68.464,0 -54.509,0 -109.019,0 -163.528,0 -66.206,0 -132.412,0 -198.618,0 -57.005,0 -114.011,0 -171.016,0 -27.828,0 -55.672,-0.279 -83.5,0 -0.387,0 -0.774,0 -1.161,0 -7.362,0 -16.831,3.297 -16.174,12.33 0.604,8.321 10.627,14.667 18.361,14.667 22.821,0 45.643,0 68.464,0 54.509,0 109.019,0 163.528,0 66.206,0 132.412,0 198.618,0 57.005,0 114.01,0 171.016,0 27.828,0 55.672,0.28 83.5,0 0.387,0 0.774,0 1.161,0 7.362,0 16.831,-3.297 16.174,-12.33 -0.605,-8.321 -10.627,-14.667 -18.361,-14.667 z"
   id="path16"
   inkscape:label="mare-02" />
			<path
   d="m 876.747,1752.76 c -60.093,0 -120.185,0 -180.278,0 -95.873,0 -191.746,0 -287.619,0 -22.129,0 -44.258,0 -66.386,0 -7.362,0 -16.831,3.297 -16.174,12.33 0.604,8.321 10.627,14.667 18.361,14.667 60.093,0 120.185,0 180.278,0 95.873,0 191.746,0 287.619,0 22.129,0 44.258,0 66.386,0 7.362,0 16.831,-3.297 16.174,-12.33 -0.605,-8.322 -10.627,-14.667 -18.361,-14.667 z"
   id="path17"
   inkscape:label="mare-03" />
			<path
   d="m 785.795,1811.113 c -39.834,0 -79.667,0 -119.501,0 -63.126,0 -126.252,0 -189.377,0 -14.5,0 -29,0 -43.5,0 -7.362,0 -16.83,3.297 -16.174,12.33 0.604,8.321 10.627,14.667 18.361,14.667 39.834,0 79.667,0 119.501,0 63.126,0 126.252,0 189.378,0 14.5,0 29,0 43.5,0 7.362,0 16.831,-3.297 16.174,-12.33 -0.606,-8.322 -10.628,-14.667 -18.362,-14.667 z"
   id="path18"
   inkscape:label="mare-04" />
			<path
   d="m 689.235,1869.466 c -46.517,0 -93.034,0 -139.55,0 -6.57,0 -13.14,0 -19.71,0 -7.362,0 -16.831,3.297 -16.174,12.33 0.604,8.321 10.626,14.667 18.361,14.667 46.517,0 93.033,0 139.55,0 6.57,0 13.14,0 19.71,0 7.362,0 16.831,-3.297 16.174,-12.33 -0.604,-8.321 -10.626,-14.667 -18.361,-14.667 z"
   id="path19"
   inkscape:label="mare-05" />
		</g>
	</g>
	
</g>
</svg>
